<?xml version="1.0" encoding="UTF-8"?>
<svg width="100px" height="30px" viewBox="0 0 100 30" version="1.1" xmlns="http://www.w3.org/2000/svg" xmlns:xlink="http://www.w3.org/1999/xlink">
    <title>logo/no-call-letters/los-angeles</title>
    <g id="logo/no-call-letters/los-angeles" stroke="none" stroke-width="1" fill="none" fill-rule="evenodd">
        <path d="M83.9151713,0 L83.9151713,29.0592713 L76.3023382,29.0592713 L76.3023382,7.30831974 L71.9521479,7.30831974 L71.9521479,3.54540511 C74.5388472,3.36710455 76.9202894,2.07318758 78.4774334,0 L78.4774334,0 L83.9151713,0 Z M17.4877651,0 L18.0206634,7.93909734 L8.23273518,7.93909734 L8.23273518,11.7346384 L16.2588363,11.7346384 L16.2588363,19.6084829 L8.10222947,19.6084829 L8.16748233,29.0483959 L0,29.0483959 L0,0 L17.4877651,0 Z M100,0 L100,29.0266449 L92.3871669,29.0266449 L92.3871669,7.27569331 L88.0369766,7.27569331 L88.0369766,3.54540511 C90.6232632,3.36568754 93.0041538,2.07207027 94.5622621,0 L94.5622621,0 L100,0 Z M50.8754758,0 L54.4426319,6.29690049 L58.1294182,0 L66.8297988,0 L58.9233279,13.9314845 L67.6237085,29.004894 L58.5644372,29.004894 L54.3230016,21.6748233 L50.1359434,29.0157694 L41.3376835,29.0157694 L49.9728113,14.0293638 L41.8162045,0 L50.8754758,0 Z M31.5280044,0.652528548 C39.1740999,0.652528548 45.372485,6.85091369 45.372485,14.4970092 C45.4130768,18.2082202 43.9768809,21.7833823 41.3801836,24.4351548 C38.7834863,27.0869274 35.2392499,28.5978314 31.5280044,28.6351278 L31.5280044,28.6351278 L31.6476346,28.6786297 C27.907958,28.6731801 24.3262289,27.170271 21.7023893,24.5055616 C19.0785496,21.8408522 17.6311758,18.2363234 17.6835237,14.4970092 C17.6835237,6.85091369 23.8819088,0.652528548 31.5280044,0.652528548 Z M31.6911365,6.24252311 C30.3498622,6.30108687 29.296404,7.41226882 29.3094073,8.75475802 L29.3094073,20.3262643 C29.3033655,21.6374464 30.3582441,22.7069085 31.6693855,22.7188959 C32.9842155,22.7250336 34.0599575,21.67352 34.0837412,20.3588907 L34.0837412,8.75475802 C34.0743406,7.41708372 33.0267619,6.31712611 31.6911365,6.24252311 Z" id="fts-los-angeles-c-copy-2" fill="#FFFFFF"></path>
    </g>
</svg>